<svg xmlns="http://www.w3.org/2000/svg" width="29.916" height="21.574"><path data-name="Контур 144" d="M12.536 20.553c-5.309-.1-7.122-.186-8.236-.415a3.62 3.62 0 01-1.89-.983 3.978 3.978 0 01-.9-1.726 11.29 11.29 0 01-.382-2.534 60.193 60.193 0 010-8.215c.171-1.517.253-3.319 1.387-4.37a3.719 3.719 0 011.857-.939A102.551 102.551 0 0114.935 1a102.74 102.74 0 0110.564.371 3.634 3.634 0 012.174 1.289c1.034 1.627 1.052 3.65 1.157 5.233.043.754.043 5.036 0 5.79a13.231 13.231 0 01-.666 4.3 3.172 3.172 0 01-.765 1.224 3.664 3.664 0 01-1.945.994c-4.594.345-8.495.42-12.922.35zm7.035-10.05c-2.556-1.366-5-2.632-7.5-3.943v7.843c2.632-1.431 5.407-2.742 7.515-3.911l-.011.011z" fill="none" stroke="#93a5ff" stroke-linejoin="round" stroke-width="2" opacity=".93"/></svg>